GIL11_free_grf.mot																		
version=4																		
nRows=54																		
nColumns=19																		
inDegrees=yes																		
endheader																		
																		
time	     ground_force_vx	     ground_force_vy	     ground_force_vz	     ground_force_px	     ground_force_py	     ground_force_pz	     1_ground_force_vx	     1_ground_force_vy	     1_ground_force_vz	     1_ground_force_px	     1_ground_force_py	     1_ground_force_pz	     ground_torque_x	     ground_torque_y	     ground_torque_z	     1_ground_torque_x	    1_ground_torque_y	     1_ground_torque_z
0.13333328	0	0	0	1.11448792	0	0.04530319	-119.0252261	825.9876095	52.7579873	0.70152191	0	-0.05584741	0	0	0	0	1.99093496	0
0.14166661	0	0	0	1.11549573	0	0.04509628	-114.3966184	831.9030117	54.34730053	0.70301001	0	-0.05632111	0	0	0	0	1.779264287	0
0.14999995	0	0	0	1.11656311	0	0.04486433	-108.2014713	830.7744566	55.36020579	0.70483044	0	-0.05688391	0	0	0	0	1.469862278	0
0.15833327	0	0	0	1.11771851	0	0.04461234	-101.1249326	824.0078977	55.62461298	0.706789	0	-0.05747675	0	0	0	0	1.078037684	0
0.16666661	0	0	0	1.11898889	0	0.04434412	-93.46376765	813.7105994	55.39066661	0.70877942	0	-0.05807809	0	0	0	0	0.636366469	0
0.17499994	0	0	0	1.12039514	0	0.0440619	-85.5371623	800.9306039	55.20020338	0.7107923	0	-0.05872	0	0	0	0	0.179096515	0
0.18333328	0	0	0	1.12195288	0	0.0437807	-77.61301393	785.4765186	55.30850451	0.71289246	0	-0.05941119	0	0	0	0	-0.264651854	0
0.1916666	0	0	0	1.12366895	0	0.0435182	-69.73435668	766.8587002	55.54194671	0.7152088	0	-0.06014642	0	0	0	0	-0.654423181	0
0.19999994	0	0	0	1.12551587	0	0.04329091	-61.91700783	745.1541563	55.83092427	0.71787555	0	-0.06091641	0	0	0	0	-0.938977452	0
0.20833328	0	0	0	1.12746704	0	0.04312553	-54.4809257	720.8304039	56.34181873	0.72099603	0	-0.06174512	0	0	0	0	-1.085977125	0
0.21666661	0	0	0	1.12949292	0	0.04304465	-48.13304413	694.9019641	57.14738246	0.72461542	0	-0.06262857	0	0	0	0	-1.096706387	0
0.22499993	0	0	0	1.13156238	0	0.04303732	-43.41484569	668.9713442	58.00538056	0.72869214	0	-0.06351791	0	0	0	0	-1.006821772	0
0.23333327	0	0	0	1.13362842	0	0.04309326	-40.10589429	644.9594425	58.48208068	0.73301514	0	-0.06433374	0	0	0	0	-0.873280336	0
0.24166662	0	0	0	1.13565112	0	0.04319557	-37.3963019	624.7005703	58.22406837	0.73728656	0	-0.06499283	0	0	0	0	-0.751179824	0
0.24999994	0	0	0	1.13764526	0	0.04332684	-34.63642384	609.5107019	57.15376924	0.74123157	0	-0.06543182	0	0	0	0	-0.674467855	0
0.25833327	0	0	0	1.13966162	0	0.04347189	-31.64410244	599.7267844	55.41215403	0.74475464	0	-0.06566541	0	0	0	0	-0.673193911	0
0.26666659	0	0	0	1.14175134	0	0.04364397	-28.52967324	595.2704905	53.06144784	0.74790527	0	-0.06573196	0	0	0	0	-0.76537064	0
0.27499995	0	0	0	1.14396619	0	0.0438782	-25.45923703	595.9254226	50.13710587	0.75076898	0	-0.06570383	0	0	0	0	-0.949997897	0
0.28333327	0	0	0	1.14634888	0	0.04419702	-22.58704817	601.6507694	46.83148137	0.75340112	0	-0.06562317	0	0	0	0	-1.204129971	0
0.29166663	0	0	0	1.14894592	0	0.04461256	-19.92592562	612.072016	43.52881494	0.7558573	0	-0.0655481	0	0	0	0	-1.498726416	0
0.29999995	0	0	0	1.1518053	0	0.04514975	-17.35321463	626.4503022	40.69793025	0.75820404	0	-0.06552518	0	0	0	0	-1.805916655	0
0.30833328	0	0	0	1.15494531	0	0.04581853	-14.77284379	643.9922523	38.74612149	0.76053308	0	-0.0655694	0	0	0	0	-2.102120499	0
0.3166666	0	0	0	1.15835364	0	0.04661967	-12.15260351	663.7640387	37.91613804	0.76291241	0	-0.06566998	0	0	0	0	-2.354906461	0
0.32499993	0	0	0	1.16198755	0	0.04755228	-9.509823732	684.7628456	38.22229893	0.76539197	0	-0.06583679	0	0	0	0	-2.532427799	0
0.33333325	0	0	0	1.16577478	0	0.04858841	-6.849202059	706.0791697	39.50348749	0.7679585	0	-0.06606662	0	0	0	0	-2.62189581	0
0.34166661	0	0	0	1.16961938	0	0.04968661	-4.072341525	727.0026127	41.45179724	0.77058905	0	-0.06634775	0	0	0	0	-2.63906868	0
0.34999993	0	0	0	1.17345496	0	0.05079654	-0.992504082	747.142	43.69152745	0.77323755	0	-0.06662231	0	0	0	0	-2.621929392	0
0.35833329	0	0	0	1.17723706	0	0.05188432	2.572733859	766.0952997	45.88295067	0.77587494	0	-0.0668699	0	0	0	0	-2.615161817	0
0.36666662	0	0	0	1.18090967	0	0.05292429	6.677977409	783.4742158	47.77494653	0.77846503	0	-0.06708868	0	0	0	0	-2.656979835	0
0.37499994	0	0	0	1.18440051	0	0.05387814	11.30935017	798.9102807	49.21245073	0.78098334	0	-0.06728021	0	0	0	0	-2.775665495	0
0.38333327	0	0	0	1.18769385	0	0.05472589	16.44554723	812.3725808	50.20562735	0.78341443	0	-0.06741925	0	0	0	0	-2.976091263	0
0.39166662	0	0	0	1.19085461	0	0.0554823	22.0641809	823.9343078	50.93083851	0.7857702	0	-0.06749329	0	0	0	0	-3.244153687	0
0.39999995	0	0	0	1.19396655	0	0.05620554	28.11860159	833.7960401	51.69310054	0.78805206	0	-0.06749603	0	0	0	0	-3.540113999	0
0.40833327	0	0	0	1.19706311	0	0.05696498	34.57423912	842.3784559	52.95407034	0.79026392	0	-0.06744415	0	0	0	0	-3.780651332	0
0.4166666	0	0	0	1.2000752	0	0.05781479	41.31010027	850.6802767	55.18806433	0.7923847	0	-0.06734042	0	0	0	0	-3.855943694	0
0.42499995	0	0	0	1.20286072	0	0.05876559	48.13157998	859.907245	58.20691325	0.79440137	0	-0.06719818	0	0	0	0	-3.733468654	0
0.43333328	0	0	0	1.20529443	0	0.0597868	54.77232933	871.1061711	60.35520175	0.79624371	0	-0.06698248	0	0	0	0	-3.610432796	0
0.4416666	0	0	0	1.2073645	0	0.06082642	61.6486584	884.6035903	60.58375601	0.79786475	0	-0.0666713	0	0	0	0	-3.666539862	0
0.44999993	0	0	0	1.2091709	0	0.06183884	69.36161695	900.3686769	59.12374347	0.79926227	0	-0.06625665	0	0	0	0	-3.884357015	0
0.45833328	0	0	0	1.21087915	0	0.06279654	77.94248995	918.2939946	56.46092399	0.80048322	0	-0.06577673	0	0	0	0	-4.198170741	0
0.46666661	0	0	0	1.21274536	0	0.06369835	87.16523858	938.2782579	53.3065863	0.8015766	0	-0.06528442	0	0	0	0	-4.547632539	0
0.47499993	0	0	0	1.21511865	0	0.06458998	96.80188901	959.8804454	50.26267056	0.80259161	0	-0.06484088	0	0	0	0	-4.886204739	0
0.48333326	0	0	0	1.21842456	0	0.06556178	107.0149787	982.4061594	47.62490282	0.80354279	0	-0.06446649	0	0	0	0	-5.190455971	0
0.49166662	0	0	0	1.22306677	0	0.06668849	118.0693322	1004.918762	45.53162752	0.80443951	0	-0.06418542	0	0	0	0	-5.443130597	0
0.49999994	0	0	0	1.22920313	0	0.06794109	129.8965937	1026.500164	44.08105307	0.80528802	0	-0.06399457	0	0	0	0	-5.613566192	0
0.50833327	0	0	0	1.23649512	0	0.06925272	142.4094035	1045.827514	43.35802845	0.80610773	0	-0.06389789	0	0	0	0	-5.667761133	0
0.51666665	0	0	0	1.2443114	0	0.07062285	155.5865293	1061.270179	43.32992153	0.80690723	0	-0.06389307	0	0	0	0	-5.591370562	0
0.52499998	0	0	0	1.25178735	0	0.07187766	169.4628781	1071.028404	43.72105274	0.80770837	0	-0.06397421	0	0	0	0	-5.405636989	0
0.5333333	-2.14305058	31.28408923	-0.456065956	1.25757703	0	0.07251291	183.8312318	1073.320916	44.04734781	0.80853845	0	-0.0640817	0	0.021057594	0	0	-5.164245379	0
0.54166663	-8.013666648	132.0084386	2.058927217	1.26137488	0	0.07239574	197.9755701	1065.836283	43.73268507	0.80947382	0	-0.06415289	0	0.100076202	0	0	-4.909424771	0
0.54999995	-17.92694292	278.7281382	8.104476511	1.26399719	0	0.07188954	211.0210566	1045.482015	41.9376141	0.81056409	0	-0.06412155	0	0.230706144	0	0	-4.670335582	0
0.55833328	-31.15097011	400.556532	16.43676626	1.26619495	0	0.07131264	221.3718025	1009.052511	37.9658798	0.81184003	0	-0.063931	0	0.31665959	0	0	-4.444868698	0
0.5666666	-48.04597276	470.8682472	23.10564495	1.2687373	0	0.07078703	227.5911247	954.200957	31.64346716	0.81326434	0	-0.06353775	0	0.280894085	0	0	-4.186302749	0
0.57499993	-66.48010223	510.4324696	26.71086499	1.27235938	0	0.07060568	228.7365042	879.7348174	22.82917556	0.81473199	0	-0.06292834	0	0.096409288	0	0	-3.840497685	0
